<svg width="24" height="21" viewBox="0 0 24 21" fill="none" xmlns="http://www.w3.org/2000/svg">
<path d="M16.5009 2.25469H15.9009C15.9009 2.50978 15.789 3.11576 15.5228 3.91539C15.2631 4.69568 14.8757 5.60214 14.3685 6.44669L13.8225 7.35562H14.8828H21.75C22.6619 7.35562 23.4 8.09403 23.4 9.00469C23.4 9.87376 22.7224 10.5831 21.8634 10.641L20.6182 10.725L21.4614 11.6451C21.7346 11.9431 21.9 12.3298 21.9 12.7547C21.9 13.5558 21.3206 14.2272 20.5561 14.3688L19.6988 14.5276L20.1534 15.2716C20.3096 15.5273 20.4 15.8168 20.4 16.125C20.4 16.8552 19.9237 17.4683 19.2557 17.6859L18.7365 17.8551L18.8562 18.3879C18.8845 18.5141 18.9 18.6337 18.9 18.7509C18.9 19.662 18.162 20.4 17.25 20.4H14.4984C13.006 20.4 11.5531 19.9169 10.3611 19.0197L10.3602 19.019L8.75987 17.8194C8.34462 17.5082 8.10012 17.0192 8.1 16.5004C8.1 16.5002 8.1 16.5001 8.1 16.5L8.10467 9.00429C8.10468 9.00368 8.10468 9.00307 8.10469 9.00247C8.10868 8.51472 8.31691 8.03926 8.71904 7.71502C8.71937 7.71476 8.71969 7.7145 8.72001 7.71424L9.48193 7.10658L9.48255 7.10608C11.5193 5.47726 12.1032 3.69592 12.526 2.40647C12.5316 2.38932 12.5372 2.37226 12.5427 2.35528C12.7622 1.68616 12.9132 1.26475 13.1418 0.986688C13.3212 0.768449 13.5832 0.6 14.1797 0.6C15.2648 0.6 15.9002 1.44299 15.9009 2.2552L16.5009 2.25469ZM16.5009 2.25469C16.5009 2.88539 16.0659 4.54642 15.2199 6.15562L9.10781 6.6375C11.0046 5.1206 11.5422 3.48109 11.9586 2.21103C12.3844 0.912371 12.6836 0 14.1797 0C15.6328 0 16.5 1.14937 16.5009 2.25469ZM4.5607 20.2765L4.53043 20.2734H4.5H1.5C0.980458 20.2734 0.6 19.8903 0.6 19.4156V8.95781C0.6 8.51413 0.991939 8.1 1.5 8.1H4.5C5.01954 8.1 5.4 8.48309 5.4 8.95781V19.4578C5.4 19.9959 5.01122 20.3223 4.5607 20.2765Z" stroke="#FFC416" stroke-width="1.2"/>
</svg>
