<svg width="30" height="24" viewBox="0 0 30 24" fill="none" xmlns="http://www.w3.org/2000/svg">
<path d="M26.7165 10.9998L26.7013 11.0151L26.6874 11.0316C26.1257 11.7004 25.4155 12.2224 24.5706 12.557L24.5627 12.5601L24.555 12.5635C23.8017 12.8917 22.9322 13.0304 22.066 12.9567C21.4388 12.8506 20.8463 12.5976 20.3406 12.2152L19.9934 11.9527L19.6855 12.2605L8.84755 23.098L9.20109 23.4515L8.84754 23.098C8.59014 23.3554 8.24029 23.5 7.875 23.5C7.5099 23.5 7.16033 23.3555 6.90222 23.0978C6.64482 22.8402 6.49982 22.4894 6.49982 22.125C6.49982 21.7605 6.64488 21.4096 6.90239 21.152C6.90242 21.152 6.90245 21.152 6.90248 21.1519L17.7441 10.3145L18.0521 10.0067L17.7895 9.65937C17.4071 9.15365 17.1541 8.5612 17.048 7.93399C16.9745 7.07043 17.1118 6.20163 17.4447 5.39454C17.7797 4.58815 18.3035 3.87303 18.973 3.31129L18.9897 3.29725L19.0051 3.2818C20.5296 1.75723 22.3478 0.843051 24.0377 0.579988C25.728 0.31685 27.2507 0.706413 28.2729 1.72922L28.273 1.72932C29.2951 2.7514 29.6838 4.27348 29.4199 5.96388C29.156 7.65382 28.2412 9.47287 26.7165 10.9998Z" stroke="#FFC416"/>
<path d="M10.9993 3.28331L11.0146 3.29854L11.0311 3.3124C11.6999 3.87407 12.222 4.58428 12.5565 5.42919L12.5596 5.43708L12.563 5.44486C12.8912 6.1981 13.0299 7.06765 12.9562 7.93382C12.8501 8.56103 12.5971 9.15348 12.2147 9.6592L11.9522 10.0065L12.26 10.3143L23.0975 21.1523L23.4511 20.7987L23.0975 21.1523C23.3549 21.4097 23.4995 21.7595 23.4995 22.1248C23.4995 22.4899 23.355 22.8395 23.0973 23.0976C22.8397 23.355 22.4889 23.5 22.1245 23.5C21.76 23.5 21.4092 23.3549 21.1516 23.0974C21.1515 23.0974 21.1515 23.0974 21.1515 23.0973L10.3141 12.2557L10.0062 11.9477L9.65888 12.2104C9.15316 12.5927 8.56071 12.8457 7.9335 12.9518C7.06995 13.0254 6.20114 12.8881 5.39405 12.5551C4.58767 12.2201 3.87254 11.6963 3.3108 11.0269L3.29676 11.0101L3.28132 10.9947C1.75674 9.47026 0.842563 7.652 0.5795 5.96216C0.316362 4.27184 0.705925 2.74909 1.72873 1.72691L1.72883 1.7268C2.75091 0.704727 4.273 0.316059 5.96339 0.57996C7.65333 0.84379 9.47238 1.75861 10.9993 3.28331Z" stroke="#FFC416"/>
</svg>
