<svg width="24" height="24" viewBox="0 0 24 24" fill="none" xmlns="http://www.w3.org/2000/svg">
<path d="M22.9484 9.31605L22.9483 9.31582C22.8333 8.94578 22.5641 8.71305 22.2396 8.64559C22.2394 8.64555 22.2392 8.6455 22.239 8.64546L16.6493 7.4935L16.647 7.49301C16.1826 7.39613 15.8007 7.09633 15.584 6.69709L15.5813 6.69206L15.5813 6.69206L12.8039 1.50328C12.6248 1.16931 12.3254 1 11.9997 1C11.6749 1 11.3765 1.16845 11.197 1.50251C11.197 1.50255 11.1969 1.50259 11.1969 1.50264C11.1968 1.50285 11.1967 1.50307 11.1966 1.50328L8.41919 6.69206L8.41648 6.69709C8.19936 7.0972 7.81658 7.39683 7.35103 7.49329L7.35005 7.49349L1.76121 8.64552C1.76103 8.64556 1.76084 8.6456 1.76066 8.64564C1.76061 8.64565 1.76056 8.64566 1.76051 8.64567C1.43571 8.71312 1.1673 8.94531 1.0523 9.31567L1.05172 9.31754C0.93522 9.69017 1.01925 10.0686 1.2647 10.3452L22.9484 9.31605ZM22.9484 9.31605C23.0649 9.69091 22.9804 10.0698 22.7355 10.3455L18.867 14.6998C18.8662 14.7006 18.8655 14.7014 18.8647 14.7023C18.5551 15.0484 18.4159 15.5073 18.4679 15.9589C18.468 15.9594 18.468 15.9598 18.4681 15.9603L19.1448 21.8584C19.1449 21.8585 19.1449 21.8586 19.1449 21.8588C19.1899 22.2543 19.0349 22.6012 18.7523 22.8147C18.4732 23.0255 18.1474 23.055 17.8467 22.9101L12.6742 20.4147L12.6717 20.4135C12.2457 20.2095 11.7537 20.2095 11.3277 20.4135L11.3251 20.4148L6.15416 22.9099C6.15407 22.91 6.15399 22.91 6.1539 22.9101C6.02452 22.9723 5.8953 22.9998 5.77285 22.9998C5.59938 22.9998 5.41783 22.9441 5.24836 22.8157L5.24708 22.8147C4.96547 22.6019 4.81053 22.2555 4.85564 21.8588C4.85565 21.8587 4.85566 21.8586 4.85568 21.8585C4.85568 21.8584 4.85569 21.8584 4.85569 21.8583L5.53108 15.9603C5.53114 15.9598 5.5312 15.9593 5.53127 15.9587C5.58397 15.506 5.44304 15.0502 5.1416 14.7075L5.14161 14.7075L5.13821 14.7036L1.26498 10.3455L22.9484 9.31605Z" stroke="#FFC416" stroke-width="2"/>
</svg>
